# Blender v2.79 (sub 0) OBJ File: ''
# www.blender.org
mtllib Cplane.mtl
o Plane
v -3.000000 0.000000 2.000000
v 3.000000 0.000000 2.000000
v -3.000000 0.000000 -2.000000
v 3.000000 0.000000 -2.000000
v -3.000000 0.000000 -1.636364
v -3.000000 0.000000 -1.272727
v -3.000000 0.000000 -0.909091
v -3.000000 0.000000 -0.545455
v -3.000000 0.000000 -0.181818
v -3.000000 0.000000 0.181818
v -3.000000 0.000000 0.545455
v -3.000000 0.000000 0.909091
v -3.000000 0.000000 1.272727
v -3.000000 0.000000 1.636364
v -2.454545 0.000000 2.000000
v -1.909091 0.000000 2.000000
v -1.363636 0.000000 2.000000
v -0.818182 0.000000 2.000000
v -0.272727 0.000000 2.000000
v 0.272727 0.000000 2.000000
v 0.818182 0.000000 2.000000
v 1.363636 0.000000 2.000000
v 1.909091 0.000000 2.000000
v 2.454545 0.000000 2.000000
v 3.000000 0.000000 1.636364
v 3.000000 0.000000 1.272727
v 3.000000 0.000000 0.909091
v 3.000000 0.000000 0.545455
v 3.000000 0.000000 0.181818
v 3.000000 0.000000 -0.181818
v 3.000000 0.000000 -0.545455
v 3.000000 0.000000 -0.909091
v 3.000000 0.000000 -1.272727
v 3.000000 0.000000 -1.636364
v 2.454545 0.000000 -2.000000
v 1.909091 0.000000 -2.000000
v 1.363636 0.000000 -2.000000
v 0.818182 0.000000 -2.000000
v 0.272727 0.000000 -2.000000
v -0.272727 0.000000 -2.000000
v -0.818182 0.000000 -2.000000
v -1.363636 0.000000 -2.000000
v -1.909091 0.000000 -2.000000
v -2.454545 0.000000 -2.000000
v -2.454545 0.000000 1.636364
v -2.454545 0.000000 1.272727
v -2.454545 0.000000 0.909091
v -2.454545 0.000000 0.545455
v -2.454545 0.000000 0.181818
v -2.454545 0.000000 -0.181818
v -2.454545 0.000000 -0.545455
v -2.454545 0.000000 -0.909091
v -2.454545 0.000000 -1.272727
v -2.454545 0.000000 -1.636364
v -1.909091 0.000000 1.636364
v -1.909091 0.000000 1.272727
v -1.909091 0.000000 0.909091
v -1.909091 0.000000 0.545455
v -1.909091 0.000000 0.181818
v -1.909091 0.000000 -0.181818
v -1.909091 0.000000 -0.545455
v -1.909091 0.000000 -0.909091
v -1.909091 0.000000 -1.272727
v -1.909091 0.000000 -1.636364
v -1.363636 0.000000 1.636364
v -1.363636 0.000000 1.272727
v -1.363636 0.000000 0.909091
v -1.363636 0.000000 0.545455
v -1.363636 0.000000 0.181818
v -1.363636 0.000000 -0.181818
v -1.363636 0.000000 -0.545455
v -1.363636 0.000000 -0.909091
v -1.363636 0.000000 -1.272727
v -1.363636 0.000000 -1.636364
v -0.818182 0.000000 1.636364
v -0.818182 0.000000 1.272727
v -0.818182 0.000000 0.909091
v -0.818182 0.000000 0.545455
v -0.818182 0.000000 0.181818
v -0.818182 0.000000 -0.181818
v -0.818182 0.000000 -0.545455
v -0.818182 0.000000 -0.909091
v -0.818182 0.000000 -1.272727
v -0.818182 0.000000 -1.636364
v -0.272727 0.000000 1.636364
v -0.272727 0.000000 1.272727
v -0.272727 0.000000 0.909091
v -0.272727 0.000000 0.545455
v -0.272727 0.000000 0.181818
v -0.272727 0.000000 -0.181818
v -0.272727 0.000000 -0.545455
v -0.272727 0.000000 -0.909091
v -0.272727 0.000000 -1.272727
v -0.272727 0.000000 -1.636364
v 0.272727 0.000000 1.636364
v 0.272727 0.000000 1.272727
v 0.272727 0.000000 0.909091
v 0.272727 0.000000 0.545455
v 0.272727 0.000000 0.181818
v 0.272727 0.000000 -0.181818
v 0.272727 0.000000 -0.545455
v 0.272727 0.000000 -0.909091
v 0.272727 0.000000 -1.272727
v 0.272727 0.000000 -1.636364
v 0.818182 0.000000 1.636364
v 0.818182 0.000000 1.272727
v 0.818182 0.000000 0.909091
v 0.818182 0.000000 0.545455
v 0.818182 0.000000 0.181818
v 0.818182 0.000000 -0.181818
v 0.818182 0.000000 -0.545455
v 0.818182 0.000000 -0.909091
v 0.818182 0.000000 -1.272727
v 0.818182 0.000000 -1.636364
v 1.363636 0.000000 1.636364
v 1.363636 0.000000 1.272727
v 1.363636 0.000000 0.909091
v 1.363636 0.000000 0.545455
v 1.363636 0.000000 0.181818
v 1.363636 0.000000 -0.181818
v 1.363636 0.000000 -0.545455
v 1.363636 0.000000 -0.909091
v 1.363636 0.000000 -1.272727
v 1.363636 0.000000 -1.636364
v 1.909091 0.000000 1.636364
v 1.909091 0.000000 1.272727
v 1.909091 0.000000 0.909091
v 1.909091 0.000000 0.545455
v 1.909091 0.000000 0.181818
v 1.909091 0.000000 -0.181818
v 1.909091 0.000000 -0.545455
v 1.909091 0.000000 -0.909091
v 1.909091 0.000000 -1.272727
v 1.909091 0.000000 -1.636364
v 2.454545 0.000000 1.636364
v 2.454545 0.000000 1.272727
v 2.454545 0.000000 0.909091
v 2.454545 0.000000 0.545455
v 2.454545 0.000000 0.181818
v 2.454545 0.000000 -0.181818
v 2.454545 0.000000 -0.545455
v 2.454545 0.000000 -0.909091
v 2.454545 0.000000 -1.272727
v 2.454545 0.000000 -1.636364
vt 0.961920 0.780396
vt 0.877935 0.855050
vt 0.877935 0.780396
vt 0.122066 0.780396
vt 0.038080 0.855050
vt 0.038080 0.780396
vt 0.206051 0.780396
vt 0.122066 0.855050
vt 0.290036 0.780396
vt 0.206051 0.855050
vt 0.374022 0.780396
vt 0.290036 0.855050
vt 0.458007 0.780396
vt 0.374022 0.855050
vt 0.541993 0.780396
vt 0.458007 0.855050
vt 0.625978 0.780396
vt 0.541993 0.855050
vt 0.709964 0.780396
vt 0.625978 0.855050
vt 0.793949 0.780396
vt 0.709964 0.855050
vt 0.793949 0.855050
vt 0.122065 0.033859
vt 0.038080 0.108513
vt 0.038080 0.033859
vt 0.122065 0.108513
vt 0.038080 0.183167
vt 0.122065 0.183167
vt 0.038080 0.257821
vt 0.122065 0.257821
vt 0.038080 0.332474
vt 0.122065 0.332474
vt 0.038080 0.407128
vt 0.122066 0.407128
vt 0.038080 0.481782
vt 0.122066 0.481782
vt 0.038080 0.556435
vt 0.122066 0.556435
vt 0.038080 0.631089
vt 0.122066 0.631089
vt 0.038080 0.705743
vt 0.122066 0.705743
vt 0.206051 0.033859
vt 0.206051 0.108513
vt 0.206051 0.183167
vt 0.206051 0.257820
vt 0.206051 0.332474
vt 0.206051 0.407128
vt 0.206051 0.481782
vt 0.206051 0.556435
vt 0.206051 0.631089
vt 0.206051 0.705743
vt 0.290036 0.033859
vt 0.290036 0.108513
vt 0.290036 0.183167
vt 0.290036 0.257820
vt 0.290036 0.332474
vt 0.290036 0.407128
vt 0.290036 0.481782
vt 0.290036 0.556435
vt 0.290036 0.631089
vt 0.290036 0.705743
vt 0.374022 0.033859
vt 0.374022 0.108513
vt 0.374022 0.183167
vt 0.374022 0.257820
vt 0.374022 0.332474
vt 0.374022 0.407128
vt 0.374022 0.481782
vt 0.374022 0.556435
vt 0.374022 0.631089
vt 0.374022 0.705743
vt 0.458007 0.033859
vt 0.458007 0.108513
vt 0.458007 0.183167
vt 0.458007 0.257820
vt 0.458007 0.332474
vt 0.458007 0.407128
vt 0.458007 0.481782
vt 0.458007 0.556435
vt 0.458007 0.631089
vt 0.458007 0.705743
vt 0.541993 0.033859
vt 0.541993 0.108513
vt 0.541993 0.183167
vt 0.541993 0.257820
vt 0.541993 0.332474
vt 0.541993 0.407128
vt 0.541993 0.481782
vt 0.541993 0.556435
vt 0.541993 0.631089
vt 0.541993 0.705743
vt 0.625978 0.033859
vt 0.625978 0.108513
vt 0.625978 0.183167
vt 0.625978 0.257820
vt 0.625978 0.332474
vt 0.625978 0.407128
vt 0.625978 0.481782
vt 0.625978 0.556435
vt 0.625978 0.631089
vt 0.625978 0.705743
vt 0.709964 0.033859
vt 0.709964 0.108513
vt 0.709964 0.183167
vt 0.709964 0.257820
vt 0.709964 0.332474
vt 0.709964 0.407128
vt 0.709964 0.481782
vt 0.709964 0.556435
vt 0.709964 0.631089
vt 0.709964 0.705743
vt 0.793949 0.033859
vt 0.793949 0.108513
vt 0.793949 0.183167
vt 0.793949 0.257820
vt 0.793949 0.332474
vt 0.793949 0.407128
vt 0.793949 0.481782
vt 0.793949 0.556435
vt 0.793949 0.631089
vt 0.793949 0.705743
vt 0.877935 0.033859
vt 0.877935 0.108513
vt 0.877935 0.183167
vt 0.877935 0.257820
vt 0.877935 0.332474
vt 0.877935 0.407128
vt 0.877935 0.481782
vt 0.877935 0.556435
vt 0.877935 0.631089
vt 0.877935 0.705743
vt 0.961920 0.033859
vt 0.961920 0.108513
vt 0.961920 0.183167
vt 0.961920 0.257820
vt 0.961920 0.332474
vt 0.961920 0.407128
vt 0.961920 0.481782
vt 0.961920 0.556435
vt 0.961920 0.631089
vt 0.961920 0.705743
vt 0.961920 0.855050
vn 0.0000 1.0000 0.0000
usemtl Material.001
s 1
f 34/1/1 35/2/1 144/3/1
f 54/4/1 3/5/1 5/6/1
f 64/7/1 44/8/1 54/4/1
f 74/9/1 43/10/1 64/7/1
f 84/11/1 42/12/1 74/9/1
f 94/13/1 41/14/1 84/11/1
f 104/15/1 40/16/1 94/13/1
f 114/17/1 39/18/1 104/15/1
f 124/19/1 38/20/1 114/17/1
f 134/21/1 37/22/1 124/19/1
f 144/3/1 36/23/1 134/21/1
f 15/24/1 14/25/1 1/26/1
f 45/27/1 13/28/1 14/25/1
f 46/29/1 12/30/1 13/28/1
f 47/31/1 11/32/1 12/30/1
f 48/33/1 10/34/1 11/32/1
f 49/35/1 9/36/1 10/34/1
f 50/37/1 8/38/1 9/36/1
f 51/39/1 7/40/1 8/38/1
f 52/41/1 6/42/1 7/40/1
f 53/43/1 5/6/1 6/42/1
f 16/44/1 45/27/1 15/24/1
f 55/45/1 46/29/1 45/27/1
f 56/46/1 47/31/1 46/29/1
f 57/47/1 48/33/1 47/31/1
f 58/48/1 49/35/1 48/33/1
f 59/49/1 50/37/1 49/35/1
f 60/50/1 51/39/1 50/37/1
f 61/51/1 52/41/1 51/39/1
f 62/52/1 53/43/1 52/41/1
f 63/53/1 54/4/1 53/43/1
f 17/54/1 55/45/1 16/44/1
f 65/55/1 56/46/1 55/45/1
f 66/56/1 57/47/1 56/46/1
f 67/57/1 58/48/1 57/47/1
f 68/58/1 59/49/1 58/48/1
f 69/59/1 60/50/1 59/49/1
f 70/60/1 61/51/1 60/50/1
f 71/61/1 62/52/1 61/51/1
f 72/62/1 63/53/1 62/52/1
f 73/63/1 64/7/1 63/53/1
f 18/64/1 65/55/1 17/54/1
f 75/65/1 66/56/1 65/55/1
f 76/66/1 67/57/1 66/56/1
f 77/67/1 68/58/1 67/57/1
f 78/68/1 69/59/1 68/58/1
f 79/69/1 70/60/1 69/59/1
f 80/70/1 71/61/1 70/60/1
f 81/71/1 72/62/1 71/61/1
f 82/72/1 73/63/1 72/62/1
f 83/73/1 74/9/1 73/63/1
f 19/74/1 75/65/1 18/64/1
f 85/75/1 76/66/1 75/65/1
f 86/76/1 77/67/1 76/66/1
f 87/77/1 78/68/1 77/67/1
f 88/78/1 79/69/1 78/68/1
f 89/79/1 80/70/1 79/69/1
f 90/80/1 81/71/1 80/70/1
f 91/81/1 82/72/1 81/71/1
f 92/82/1 83/73/1 82/72/1
f 93/83/1 84/11/1 83/73/1
f 20/84/1 85/75/1 19/74/1
f 95/85/1 86/76/1 85/75/1
f 96/86/1 87/77/1 86/76/1
f 97/87/1 88/78/1 87/77/1
f 98/88/1 89/79/1 88/78/1
f 99/89/1 90/80/1 89/79/1
f 100/90/1 91/81/1 90/80/1
f 101/91/1 92/82/1 91/81/1
f 102/92/1 93/83/1 92/82/1
f 103/93/1 94/13/1 93/83/1
f 21/94/1 95/85/1 20/84/1
f 105/95/1 96/86/1 95/85/1
f 106/96/1 97/87/1 96/86/1
f 107/97/1 98/88/1 97/87/1
f 108/98/1 99/89/1 98/88/1
f 109/99/1 100/90/1 99/89/1
f 110/100/1 101/91/1 100/90/1
f 111/101/1 102/92/1 101/91/1
f 112/102/1 103/93/1 102/92/1
f 113/103/1 104/15/1 103/93/1
f 22/104/1 105/95/1 21/94/1
f 115/105/1 106/96/1 105/95/1
f 116/106/1 107/97/1 106/96/1
f 117/107/1 108/98/1 107/97/1
f 118/108/1 109/99/1 108/98/1
f 119/109/1 110/100/1 109/99/1
f 120/110/1 111/101/1 110/100/1
f 121/111/1 112/102/1 111/101/1
f 122/112/1 113/103/1 112/102/1
f 123/113/1 114/17/1 113/103/1
f 23/114/1 115/105/1 22/104/1
f 125/115/1 116/106/1 115/105/1
f 126/116/1 117/107/1 116/106/1
f 127/117/1 118/108/1 117/107/1
f 128/118/1 119/109/1 118/108/1
f 129/119/1 120/110/1 119/109/1
f 130/120/1 121/111/1 120/110/1
f 131/121/1 122/112/1 121/111/1
f 132/122/1 123/113/1 122/112/1
f 133/123/1 124/19/1 123/113/1
f 24/124/1 125/115/1 23/114/1
f 135/125/1 126/116/1 125/115/1
f 136/126/1 127/117/1 126/116/1
f 137/127/1 128/118/1 127/117/1
f 138/128/1 129/119/1 128/118/1
f 139/129/1 130/120/1 129/119/1
f 140/130/1 131/121/1 130/120/1
f 141/131/1 132/122/1 131/121/1
f 142/132/1 133/123/1 132/122/1
f 143/133/1 134/21/1 133/123/1
f 2/134/1 135/125/1 24/124/1
f 25/135/1 136/126/1 135/125/1
f 26/136/1 137/127/1 136/126/1
f 27/137/1 138/128/1 137/127/1
f 28/138/1 139/129/1 138/128/1
f 29/139/1 140/130/1 139/129/1
f 30/140/1 141/131/1 140/130/1
f 31/141/1 142/132/1 141/131/1
f 32/142/1 143/133/1 142/132/1
f 33/143/1 144/3/1 143/133/1
f 34/1/1 4/144/1 35/2/1
f 54/4/1 44/8/1 3/5/1
f 64/7/1 43/10/1 44/8/1
f 74/9/1 42/12/1 43/10/1
f 84/11/1 41/14/1 42/12/1
f 94/13/1 40/16/1 41/14/1
f 104/15/1 39/18/1 40/16/1
f 114/17/1 38/20/1 39/18/1
f 124/19/1 37/22/1 38/20/1
f 134/21/1 36/23/1 37/22/1
f 144/3/1 35/2/1 36/23/1
f 15/24/1 45/27/1 14/25/1
f 45/27/1 46/29/1 13/28/1
f 46/29/1 47/31/1 12/30/1
f 47/31/1 48/33/1 11/32/1
f 48/33/1 49/35/1 10/34/1
f 49/35/1 50/37/1 9/36/1
f 50/37/1 51/39/1 8/38/1
f 51/39/1 52/41/1 7/40/1
f 52/41/1 53/43/1 6/42/1
f 53/43/1 54/4/1 5/6/1
f 16/44/1 55/45/1 45/27/1
f 55/45/1 56/46/1 46/29/1
f 56/46/1 57/47/1 47/31/1
f 57/47/1 58/48/1 48/33/1
f 58/48/1 59/49/1 49/35/1
f 59/49/1 60/50/1 50/37/1
f 60/50/1 61/51/1 51/39/1
f 61/51/1 62/52/1 52/41/1
f 62/52/1 63/53/1 53/43/1
f 63/53/1 64/7/1 54/4/1
f 17/54/1 65/55/1 55/45/1
f 65/55/1 66/56/1 56/46/1
f 66/56/1 67/57/1 57/47/1
f 67/57/1 68/58/1 58/48/1
f 68/58/1 69/59/1 59/49/1
f 69/59/1 70/60/1 60/50/1
f 70/60/1 71/61/1 61/51/1
f 71/61/1 72/62/1 62/52/1
f 72/62/1 73/63/1 63/53/1
f 73/63/1 74/9/1 64/7/1
f 18/64/1 75/65/1 65/55/1
f 75/65/1 76/66/1 66/56/1
f 76/66/1 77/67/1 67/57/1
f 77/67/1 78/68/1 68/58/1
f 78/68/1 79/69/1 69/59/1
f 79/69/1 80/70/1 70/60/1
f 80/70/1 81/71/1 71/61/1
f 81/71/1 82/72/1 72/62/1
f 82/72/1 83/73/1 73/63/1
f 83/73/1 84/11/1 74/9/1
f 19/74/1 85/75/1 75/65/1
f 85/75/1 86/76/1 76/66/1
f 86/76/1 87/77/1 77/67/1
f 87/77/1 88/78/1 78/68/1
f 88/78/1 89/79/1 79/69/1
f 89/79/1 90/80/1 80/70/1
f 90/80/1 91/81/1 81/71/1
f 91/81/1 92/82/1 82/72/1
f 92/82/1 93/83/1 83/73/1
f 93/83/1 94/13/1 84/11/1
f 20/84/1 95/85/1 85/75/1
f 95/85/1 96/86/1 86/76/1
f 96/86/1 97/87/1 87/77/1
f 97/87/1 98/88/1 88/78/1
f 98/88/1 99/89/1 89/79/1
f 99/89/1 100/90/1 90/80/1
f 100/90/1 101/91/1 91/81/1
f 101/91/1 102/92/1 92/82/1
f 102/92/1 103/93/1 93/83/1
f 103/93/1 104/15/1 94/13/1
f 21/94/1 105/95/1 95/85/1
f 105/95/1 106/96/1 96/86/1
f 106/96/1 107/97/1 97/87/1
f 107/97/1 108/98/1 98/88/1
f 108/98/1 109/99/1 99/89/1
f 109/99/1 110/100/1 100/90/1
f 110/100/1 111/101/1 101/91/1
f 111/101/1 112/102/1 102/92/1
f 112/102/1 113/103/1 103/93/1
f 113/103/1 114/17/1 104/15/1
f 22/104/1 115/105/1 105/95/1
f 115/105/1 116/106/1 106/96/1
f 116/106/1 117/107/1 107/97/1
f 117/107/1 118/108/1 108/98/1
f 118/108/1 119/109/1 109/99/1
f 119/109/1 120/110/1 110/100/1
f 120/110/1 121/111/1 111/101/1
f 121/111/1 122/112/1 112/102/1
f 122/112/1 123/113/1 113/103/1
f 123/113/1 124/19/1 114/17/1
f 23/114/1 125/115/1 115/105/1
f 125/115/1 126/116/1 116/106/1
f 126/116/1 127/117/1 117/107/1
f 127/117/1 128/118/1 118/108/1
f 128/118/1 129/119/1 119/109/1
f 129/119/1 130/120/1 120/110/1
f 130/120/1 131/121/1 121/111/1
f 131/121/1 132/122/1 122/112/1
f 132/122/1 133/123/1 123/113/1
f 133/123/1 134/21/1 124/19/1
f 24/124/1 135/125/1 125/115/1
f 135/125/1 136/126/1 126/116/1
f 136/126/1 137/127/1 127/117/1
f 137/127/1 138/128/1 128/118/1
f 138/128/1 139/129/1 129/119/1
f 139/129/1 140/130/1 130/120/1
f 140/130/1 141/131/1 131/121/1
f 141/131/1 142/132/1 132/122/1
f 142/132/1 143/133/1 133/123/1
f 143/133/1 144/3/1 134/21/1
f 2/134/1 25/135/1 135/125/1
f 25/135/1 26/136/1 136/126/1
f 26/136/1 27/137/1 137/127/1
f 27/137/1 28/138/1 138/128/1
f 28/138/1 29/139/1 139/129/1
f 29/139/1 30/140/1 140/130/1
f 30/140/1 31/141/1 141/131/1
f 31/141/1 32/142/1 142/132/1
f 32/142/1 33/143/1 143/133/1
f 33/143/1 34/1/1 144/3/1
