# Blender v2.79 (sub 0) OBJ File: ''
# www.blender.org
mtllib machine_gun_turret.mtl
o Cube.001
v -0.650000 -0.650000 1.250000
v -0.650000 0.650000 1.250000
v -0.650000 -0.650000 -1.250000
v -0.650000 0.650000 -1.250000
v 0.650000 -0.650000 1.250000
v 0.650000 0.650000 1.250000
v 0.650000 -0.650000 -1.250000
v 0.650000 0.650000 -1.250000
v 0.000000 0.303819 -3.250150
v 0.000000 0.303819 -1.250150
v 0.058527 0.298055 -3.250150
v 0.058527 0.298055 -1.250150
v 0.114805 0.280983 -3.250150
v 0.114805 0.280983 -1.250150
v 0.166671 0.253260 -3.250150
v 0.166671 0.253260 -1.250150
v 0.212132 0.215952 -3.250150
v 0.212132 0.215951 -1.250150
v 0.249441 0.170491 -3.250150
v 0.249441 0.170490 -1.250150
v 0.277164 0.118625 -3.250150
v 0.277164 0.118624 -1.250150
v 0.294236 0.062347 -3.250150
v 0.294236 0.062347 -1.250150
v 0.300000 0.003820 -3.250150
v 0.300000 0.003819 -1.250150
v 0.294236 -0.054708 -3.250150
v 0.294236 -0.054708 -1.250150
v 0.277164 -0.110985 -3.250150
v 0.277164 -0.110986 -1.250150
v 0.249441 -0.162852 -3.250150
v 0.249441 -0.162852 -1.250150
v 0.212132 -0.208313 -3.250150
v 0.212132 -0.208313 -1.250150
v 0.166671 -0.245621 -3.250150
v 0.166671 -0.245622 -1.250150
v 0.114805 -0.273344 -3.250150
v 0.114805 -0.273344 -1.250150
v 0.058527 -0.290416 -3.250150
v 0.058527 -0.290416 -1.250150
v -0.000000 -0.296181 -3.250150
v -0.000000 -0.296181 -1.250150
v -0.058527 -0.290416 -3.250150
v -0.058527 -0.290416 -1.250150
v -0.114805 -0.273344 -3.250150
v -0.114805 -0.273344 -1.250150
v -0.166671 -0.245621 -3.250150
v -0.166671 -0.245621 -1.250150
v -0.212132 -0.208312 -3.250150
v -0.212132 -0.208313 -1.250150
v -0.249441 -0.162851 -3.250150
v -0.249441 -0.162851 -1.250150
v -0.277164 -0.110985 -3.250150
v -0.277164 -0.110985 -1.250150
v -0.294236 -0.054707 -3.250150
v -0.294236 -0.054707 -1.250150
v -0.300000 0.003820 -3.250150
v -0.300000 0.003820 -1.250150
v -0.294236 0.062347 -3.250150
v -0.294236 0.062347 -1.250150
v -0.277164 0.118625 -3.250150
v -0.277164 0.118625 -1.250150
v -0.249441 0.170491 -3.250150
v -0.249441 0.170491 -1.250150
v -0.212132 0.215952 -3.250150
v -0.212132 0.215952 -1.250150
v -0.166671 0.253261 -3.250150
v -0.166671 0.253261 -1.250150
v -0.114805 0.280984 -3.250150
v -0.114805 0.280983 -1.250150
v -0.058527 0.298055 -3.250150
v -0.058527 0.298055 -1.250150
vn -0.5773 -0.5773 0.5773
vn -0.5773 0.5773 0.5773
vn -0.5773 0.5773 -0.5773
vn -0.5773 -0.5773 -0.5773
vn 0.5773 0.5773 -0.5773
vn 0.5773 -0.5773 -0.5773
vn 0.5773 0.5773 0.5773
vn 0.5773 -0.5773 0.5773
vn 0.0000 0.7279 -0.6857
vn 0.0000 0.7279 0.6857
vn 0.1420 0.7139 0.6857
vn 0.1420 0.7139 -0.6857
vn 0.2785 0.6725 0.6857
vn 0.2785 0.6725 -0.6857
vn 0.4044 0.6052 0.6857
vn 0.4044 0.6052 -0.6857
vn 0.5147 0.5147 0.6857
vn 0.5147 0.5147 -0.6857
vn 0.6052 0.4044 0.6857
vn 0.6052 0.4044 -0.6857
vn 0.6725 0.2785 0.6857
vn 0.6725 0.2785 -0.6857
vn 0.7139 0.1420 0.6857
vn 0.7139 0.1420 -0.6857
vn 0.7279 0.0000 0.6857
vn 0.7279 0.0000 -0.6857
vn 0.7139 -0.1420 0.6857
vn 0.7139 -0.1420 -0.6857
vn 0.6725 -0.2785 0.6857
vn 0.6725 -0.2785 -0.6857
vn 0.6052 -0.4044 0.6857
vn 0.6052 -0.4044 -0.6857
vn 0.5147 -0.5147 0.6857
vn 0.5147 -0.5147 -0.6857
vn 0.4044 -0.6052 0.6857
vn 0.4044 -0.6052 -0.6857
vn 0.2785 -0.6725 0.6857
vn 0.2785 -0.6725 -0.6857
vn 0.1420 -0.7139 0.6857
vn 0.1420 -0.7139 -0.6857
vn 0.0000 -0.7279 0.6857
vn 0.0000 -0.7279 -0.6857
vn -0.1420 -0.7139 0.6857
vn -0.1420 -0.7139 -0.6857
vn -0.2785 -0.6725 0.6857
vn -0.2785 -0.6725 -0.6857
vn -0.4044 -0.6052 0.6857
vn -0.4044 -0.6052 -0.6857
vn -0.5147 -0.5147 0.6857
vn -0.5147 -0.5147 -0.6857
vn -0.6052 -0.4044 0.6857
vn -0.6052 -0.4044 -0.6857
vn -0.6725 -0.2785 0.6857
vn -0.6725 -0.2785 -0.6857
vn -0.7139 -0.1420 0.6857
vn -0.7139 -0.1420 -0.6857
vn -0.7279 0.0000 0.6857
vn -0.7279 0.0000 -0.6857
vn -0.7139 0.1420 0.6857
vn -0.7139 0.1420 -0.6857
vn -0.6725 0.2785 0.6857
vn -0.6725 0.2785 -0.6857
vn -0.6052 0.4044 0.6857
vn -0.6052 0.4044 -0.6857
vn -0.5147 0.5147 0.6857
vn -0.5147 0.5147 -0.6857
vn -0.4044 0.6052 0.6857
vn -0.4044 0.6052 -0.6857
vn -0.2785 0.6725 0.6857
vn -0.2785 0.6725 -0.6857
vn -0.1420 0.7139 0.6857
vn -0.1420 0.7139 -0.6857
usemtl None
s 1
f 1//1 2//2 4//3 3//4
f 3//4 4//3 8//5 7//6
f 7//6 8//5 6//7 5//8
f 5//8 6//7 2//2 1//1
f 3//4 7//6 5//8 1//1
f 8//5 4//3 2//2 6//7
f 9//9 10//10 12//11 11//12
f 11//12 12//11 14//13 13//14
f 13//14 14//13 16//15 15//16
f 15//16 16//15 18//17 17//18
f 17//18 18//17 20//19 19//20
f 19//20 20//19 22//21 21//22
f 21//22 22//21 24//23 23//24
f 23//24 24//23 26//25 25//26
f 25//26 26//25 28//27 27//28
f 27//28 28//27 30//29 29//30
f 29//30 30//29 32//31 31//32
f 31//32 32//31 34//33 33//34
f 33//34 34//33 36//35 35//36
f 35//36 36//35 38//37 37//38
f 37//38 38//37 40//39 39//40
f 39//40 40//39 42//41 41//42
f 41//42 42//41 44//43 43//44
f 43//44 44//43 46//45 45//46
f 45//46 46//45 48//47 47//48
f 47//48 48//47 50//49 49//50
f 49//50 50//49 52//51 51//52
f 51//52 52//51 54//53 53//54
f 53//54 54//53 56//55 55//56
f 55//56 56//55 58//57 57//58
f 57//58 58//57 60//59 59//60
f 59//60 60//59 62//61 61//62
f 61//62 62//61 64//63 63//64
f 63//64 64//63 66//65 65//66
f 65//66 66//65 68//67 67//68
f 67//68 68//67 70//69 69//70
f 12//11 10//10 72//71 70//69 68//67 66//65 64//63 62//61 60//59 58//57 56//55 54//53 52//51 50//49 48//47 46//45 44//43 42//41 40//39 38//37 36//35 34//33 32//31 30//29 28//27 26//25 24//23 22//21 20//19 18//17 16//15 14//13
f 69//70 70//69 72//71 71//72
f 71//72 72//71 10//10 9//9
f 9//9 11//12 13//14 15//16 17//18 19//20 21//22 23//24 25//26 27//28 29//30 31//32 33//34 35//36 37//38 39//40 41//42 43//44 45//46 47//48 49//50 51//52 53//54 55//56 57//58 59//60 61//62 63//64 65//66 67//68 69//70 71//72
o Cube
v 1.000000 -0.100000 -1.000000
v 1.000000 -0.100000 1.000000
v -1.000000 -0.100000 1.000000
v -1.000000 -0.100000 -1.000000
v 1.000000 0.100000 -0.999999
v 0.999999 0.100000 1.000001
v -1.000000 0.100000 1.000000
v -1.000000 0.100000 -1.000000
v 0.000000 0.094590 -0.200000
v 0.000000 1.094590 -0.200000
v 0.039018 0.094590 -0.196157
v 0.039018 1.094590 -0.196157
v 0.076537 0.094590 -0.184776
v 0.076537 1.094590 -0.184776
v 0.111114 0.094590 -0.166294
v 0.111114 1.094590 -0.166294
v 0.141421 0.094590 -0.141421
v 0.141421 1.094590 -0.141421
v 0.166294 0.094590 -0.111114
v 0.166294 1.094590 -0.111114
v 0.184776 0.094590 -0.076537
v 0.184776 1.094590 -0.076537
v 0.196157 0.094590 -0.039018
v 0.196157 1.094590 -0.039018
v 0.200000 0.094590 -0.000000
v 0.200000 1.094590 -0.000000
v 0.196157 0.094590 0.039018
v 0.196157 1.094590 0.039018
v 0.184776 0.094590 0.076537
v 0.184776 1.094590 0.076537
v 0.166294 0.094590 0.111114
v 0.166294 1.094590 0.111114
v 0.141421 0.094590 0.141421
v 0.141421 1.094590 0.141421
v 0.111114 0.094590 0.166294
v 0.111114 1.094590 0.166294
v 0.076537 0.094590 0.184776
v 0.076537 1.094590 0.184776
v 0.039018 0.094590 0.196157
v 0.039018 1.094590 0.196157
v -0.000000 0.094590 0.200000
v -0.000000 1.094590 0.200000
v -0.039018 0.094590 0.196157
v -0.039018 1.094590 0.196157
v -0.076537 0.094590 0.184776
v -0.076537 1.094590 0.184776
v -0.111114 0.094590 0.166294
v -0.111114 1.094590 0.166294
v -0.141421 0.094590 0.141421
v -0.141421 1.094590 0.141421
v -0.166294 0.094590 0.111114
v -0.166294 1.094590 0.111114
v -0.184776 0.094590 0.076537
v -0.184776 1.094590 0.076537
v -0.196157 0.094590 0.039018
v -0.196157 1.094590 0.039018
v -0.200000 0.094590 -0.000000
v -0.200000 1.094590 -0.000000
v -0.196157 0.094590 -0.039018
v -0.196157 1.094590 -0.039018
v -0.184776 0.094590 -0.076537
v -0.184776 1.094590 -0.076537
v -0.166294 0.094590 -0.111114
v -0.166294 1.094590 -0.111114
v -0.141421 0.094590 -0.141422
v -0.141421 1.094590 -0.141422
v -0.111114 0.094590 -0.166294
v -0.111114 1.094590 -0.166294
v -0.076536 0.094590 -0.184776
v -0.076536 1.094590 -0.184776
v -0.039018 0.094590 -0.196157
v -0.039018 1.094590 -0.196157
vn 0.0000 -1.0000 0.0000
vn 0.0000 1.0000 0.0000
vn 1.0000 0.0000 0.0000
vn -0.0000 -0.0000 1.0000
vn -1.0000 -0.0000 -0.0000
vn 0.0000 0.0000 -1.0000
vn 0.0980 0.0000 -0.9952
vn 0.2903 0.0000 -0.9569
vn 0.4714 0.0000 -0.8819
vn 0.6344 0.0000 -0.7730
vn 0.7730 0.0000 -0.6344
vn 0.8819 0.0000 -0.4714
vn 0.9569 0.0000 -0.2903
vn 0.9952 0.0000 -0.0980
vn 0.9952 0.0000 0.0980
vn 0.9569 0.0000 0.2903
vn 0.8819 0.0000 0.4714
vn 0.7730 0.0000 0.6344
vn 0.6344 0.0000 0.7730
vn 0.4714 0.0000 0.8819
vn 0.2903 0.0000 0.9569
vn 0.0980 0.0000 0.9952
vn -0.0980 0.0000 0.9952
vn -0.2903 0.0000 0.9569
vn -0.4714 0.0000 0.8819
vn -0.6344 0.0000 0.7730
vn -0.7730 0.0000 0.6344
vn -0.8819 0.0000 0.4714
vn -0.9569 0.0000 0.2903
vn -0.9952 0.0000 0.0980
vn -0.9952 0.0000 -0.0980
vn -0.9569 0.0000 -0.2903
vn -0.8819 0.0000 -0.4714
vn -0.7730 0.0000 -0.6344
vn -0.6344 0.0000 -0.7730
vn -0.4714 0.0000 -0.8819
vn -0.2903 0.0000 -0.9569
vn -0.0980 0.0000 -0.9952
usemtl Material
s off
f 73//73 74//73 75//73 76//73
f 77//74 80//74 79//74 78//74
f 73//75 77//75 78//75 74//75
f 74//76 78//76 79//76 75//76
f 75//77 79//77 80//77 76//77
f 77//78 73//78 76//78 80//78
f 81//79 82//79 84//79 83//79
f 83//80 84//80 86//80 85//80
f 85//81 86//81 88//81 87//81
f 87//82 88//82 90//82 89//82
f 89//83 90//83 92//83 91//83
f 91//84 92//84 94//84 93//84
f 93//85 94//85 96//85 95//85
f 95//86 96//86 98//86 97//86
f 97//87 98//87 100//87 99//87
f 99//88 100//88 102//88 101//88
f 101//89 102//89 104//89 103//89
f 103//90 104//90 106//90 105//90
f 105//91 106//91 108//91 107//91
f 107//92 108//92 110//92 109//92
f 109//93 110//93 112//93 111//93
f 111//94 112//94 114//94 113//94
f 113//95 114//95 116//95 115//95
f 115//96 116//96 118//96 117//96
f 117//97 118//97 120//97 119//97
f 119//98 120//98 122//98 121//98
f 121//99 122//99 124//99 123//99
f 123//100 124//100 126//100 125//100
f 125//101 126//101 128//101 127//101
f 127//102 128//102 130//102 129//102
f 129//103 130//103 132//103 131//103
f 131//104 132//104 134//104 133//104
f 133//105 134//105 136//105 135//105
f 135//106 136//106 138//106 137//106
f 137//107 138//107 140//107 139//107
f 139//108 140//108 142//108 141//108
f 84//74 82//74 144//74 142//74 140//74 138//74 136//74 134//74 132//74 130//74 128//74 126//74 124//74 122//74 120//74 118//74 116//74 114//74 112//74 110//74 108//74 106//74 104//74 102//74 100//74 98//74 96//74 94//74 92//74 90//74 88//74 86//74
f 141//109 142//109 144//109 143//109
f 143//110 144//110 82//110 81//110
f 81//73 83//73 85//73 87//73 89//73 91//73 93//73 95//73 97//73 99//73 101//73 103//73 105//73 107//73 109//73 111//73 113//73 115//73 117//73 119//73 121//73 123//73 125//73 127//73 129//73 131//73 133//73 135//73 137//73 139//73 141//73 143//73
